<svg width="82" height="82" viewBox="0 0 82 82" fill="none" xmlns="http://www.w3.org/2000/svg">
<path d="M41 0.375C32.9652 0.375 25.1107 2.75761 18.43 7.22155C11.7492 11.6855 6.54222 18.0302 3.46741 25.4535C0.392602 32.8767 -0.411908 41.0451 1.15562 48.9255C2.72314 56.806 6.5923 64.0447 12.2738 69.7262C17.9553 75.4077 25.194 79.2769 33.0745 80.8444C40.955 82.4119 49.1233 81.6074 56.5465 78.5326C63.9698 75.4578 70.3145 70.2508 74.7785 63.57C79.2424 56.8893 81.625 49.0349 81.625 41C81.6136 30.2291 77.3299 19.9026 69.7137 12.2863C62.0975 4.67015 51.7709 0.386374 41 0.375ZM37.875 22.25C37.875 21.4212 38.2043 20.6263 38.7903 20.0403C39.3764 19.4542 40.1712 19.125 41 19.125C41.8288 19.125 42.6237 19.4542 43.2097 20.0403C43.7958 20.6263 44.125 21.4212 44.125 22.25V44.125C44.125 44.9538 43.7958 45.7487 43.2097 46.3347C42.6237 46.9208 41.8288 47.25 41 47.25C40.1712 47.25 39.3764 46.9208 38.7903 46.3347C38.2043 45.7487 37.875 44.9538 37.875 44.125V22.25ZM41 62.875C40.0729 62.875 39.1666 62.6001 38.3958 62.085C37.6249 61.5699 37.0241 60.8379 36.6693 59.9813C36.3145 59.1248 36.2217 58.1823 36.4026 57.273C36.5835 56.3637 37.0299 55.5285 37.6855 54.8729C38.341 54.2174 39.1762 53.7709 40.0855 53.5901C40.9948 53.4092 41.9373 53.502 42.7938 53.8568C43.6504 54.2116 44.3825 54.8124 44.8975 55.5833C45.4126 56.3541 45.6875 57.2604 45.6875 58.1875C45.6875 59.4307 45.1937 60.623 44.3146 61.5021C43.4355 62.3811 42.2432 62.875 41 62.875Z" fill="#EEBD12"/>
</svg>
